<svg xmlns="http://www.w3.org/2000/svg" width="28" height="28" viewBox="0 0 28 28" fill="none">
  <path d="M6 0C4.4087 0 2.88258 0.632141 1.75736 1.75736C0.632141 2.88258 0 4.4087 0 6C0 7.5913 0.632141 9.11742 1.75736 10.2426C2.88258 11.3679 4.4087 12 6 12C6.64357 11.9983 7.28267 11.8931 7.89281 11.6884L6.76812 10.5638L10.7902 6.54175L11.1879 6.14406L11.9291 6.88531C11.9746 6.59236 11.9983 6.29645 12 6C12 4.4087 11.3679 2.88258 10.2426 1.75736C9.11742 0.632141 7.5913 0 6 0ZM11.1879 7.735L8.35913 10.5638L13.7956 16L12.3289 17.4667L19.5314 18.9071L18.0907 11.7046L16.6241 13.1713L11.1879 7.735ZM20.0972 16L20.9654 20.3412L16 19.3481V28H28V16H20.0972Z" fill="#B0BEC5"/>
</svg>
